<svg width="22" height="23" viewBox="0 0 22 23" fill="none" xmlns="http://www.w3.org/2000/svg">
<path d="M21.8631 7.15117C21.8451 6.24885 21.6742 5.35616 21.3576 4.51117C21.0784 3.78496 20.6507 3.12517 20.102 2.57412C19.5533 2.02306 18.8958 1.59289 18.1714 1.31117C17.3255 0.99504 16.4322 0.825005 15.5296 0.808318C14.3644 0.752318 13.9935 0.739746 11.0379 0.739746C8.08219 0.739746 7.71131 0.752318 6.54958 0.803746C5.64698 0.821673 4.75401 0.993264 3.90888 1.31117C3.18081 1.58366 2.5213 2.0128 1.97686 2.56832C1.42396 3.11326 0.995678 3.77183 0.721556 4.4986C0.404483 5.34622 0.233535 6.24163 0.216012 7.1466C0.161235 8.3146 0.148682 8.68489 0.148682 11.646C0.148682 14.6072 0.161235 14.9775 0.206882 16.1397C0.22607 17.0443 0.398959 17.939 0.718132 18.7855C0.998367 19.51 1.42648 20.1681 1.97511 20.7175C2.52374 21.2669 3.18081 21.6957 3.90432 21.9763C4.7499 22.294 5.64321 22.4656 6.54616 22.4837C7.70674 22.5352 8.07763 22.5477 11.0333 22.5477C13.989 22.5477 14.3598 22.5352 15.5204 22.4837C16.4234 22.466 17.3168 22.2944 18.1623 21.9763C18.886 21.696 19.5432 21.2674 20.0919 20.7179C20.6406 20.1685 21.0686 19.5102 21.3485 18.7855C21.6655 17.9386 21.8368 17.044 21.8551 16.1397C21.9065 14.9763 21.919 14.606 21.919 11.6449C21.919 8.68375 21.919 8.31346 21.8643 7.15003L21.8631 7.15117ZM19.9026 16.054C19.8956 16.7453 19.769 17.4301 19.5283 18.078C19.3468 18.5485 19.0691 18.9758 18.713 19.3324C18.3569 19.689 17.9302 19.9672 17.4604 20.1489C16.8134 20.3895 16.1296 20.5164 15.4394 20.5237C14.2914 20.5752 13.9467 20.5877 11.0413 20.5877C8.13583 20.5877 7.78662 20.5752 6.64316 20.5237C5.9529 20.5168 5.26907 20.39 4.62212 20.1489C4.14782 19.9758 3.7187 19.6977 3.36682 19.3352C3.00581 18.982 2.7282 18.5525 2.5543 18.078C2.31598 17.4296 2.19128 16.7449 2.18569 16.054C2.13434 14.9112 2.12179 14.5683 2.12179 11.654C2.12179 8.73975 2.13434 8.39689 2.18569 7.25403C2.19261 6.56276 2.31925 5.87793 2.56 5.23003C2.73285 4.75396 3.01237 4.32389 3.37709 3.97289C3.72962 3.6112 4.15855 3.33316 4.63239 3.15917C5.27949 2.91861 5.96322 2.79179 6.65343 2.78432C7.7969 2.73403 8.14153 2.72032 11.0481 2.72032C13.9547 2.72032 14.3028 2.73289 15.4463 2.78432C16.1365 2.79128 16.8203 2.91812 17.4673 3.15917C17.9416 3.33217 18.3708 3.61035 18.7226 3.97289C19.0836 4.32603 19.3612 4.75556 19.5351 5.23003C19.773 5.87849 19.8973 6.56321 19.9026 7.25403C19.9494 8.39689 19.9665 8.73975 19.9665 11.654C19.9665 14.5683 19.9539 14.9043 19.9026 16.0552V16.054Z" fill="white"/>
<path d="M11.0386 6.04346C9.93263 6.04346 8.85151 6.37189 7.93195 6.98723C7.01238 7.60256 6.29566 8.47716 5.87243 9.50043C5.4492 10.5237 5.33846 11.6497 5.55422 12.736C5.76999 13.8223 6.30255 14.8201 7.08458 15.6033C7.86661 16.3864 8.86296 16.9198 9.94767 17.1358C11.0324 17.3519 12.1567 17.241 13.1785 16.8172C14.2002 16.3933 15.0736 15.6756 15.688 14.7547C16.3024 13.8337 16.6304 12.751 16.6304 11.6434C16.6304 10.1582 16.0413 8.73386 14.9926 7.68365C13.9439 6.63345 12.5216 6.04346 11.0386 6.04346ZM11.0386 15.28C10.3208 15.28 9.61922 15.0669 9.02244 14.6675C8.42566 14.2682 7.96052 13.7006 7.68586 13.0365C7.41119 12.3724 7.33932 11.6417 7.47935 10.9367C7.61937 10.2318 7.965 9.58418 8.47252 9.07592C8.98004 8.56765 9.62665 8.22152 10.3306 8.08129C11.0345 7.94106 11.7642 8.01303 12.4273 8.2881C13.0904 8.56317 13.6572 9.02898 14.056 9.62664C14.4547 10.2243 14.6676 10.9269 14.6676 11.6457C14.6676 12.6096 14.2852 13.534 13.6046 14.2156C12.9241 14.8971 12.001 15.28 11.0386 15.28Z" fill="white"/>
<path d="M18.1591 5.82159C18.1591 6.08018 18.0826 6.33295 17.9391 6.54796C17.7956 6.76296 17.5918 6.93054 17.3532 7.0295C17.1147 7.12845 16.8522 7.15435 16.5989 7.1039C16.3457 7.05345 16.113 6.92893 15.9305 6.74608C15.7479 6.56324 15.6236 6.33028 15.5732 6.07666C15.5228 5.82304 15.5487 5.56016 15.6475 5.32126C15.7463 5.08236 15.9136 4.87817 16.1283 4.73451C16.343 4.59084 16.5954 4.51416 16.8536 4.51416C17.1998 4.51416 17.5319 4.65191 17.7767 4.8971C18.0216 5.14229 18.1591 5.47484 18.1591 5.82159Z" fill="white"/>
</svg>
