<svg width="24" height="20" viewBox="0 0 24 20" fill="none" xmlns="http://www.w3.org/2000/svg">
<path d="M23.8679 3.10754C23.0005 3.48634 22.083 3.73807 21.1439 3.85497C22.1339 3.267 22.8741 2.33581 23.2243 1.23783C22.2974 1.78713 21.2834 2.17365 20.2264 2.38068C19.5779 1.68721 18.7361 1.20515 17.8104 0.997166C16.8848 0.789185 15.918 0.864908 15.0359 1.21449C14.1537 1.56406 13.397 2.17133 12.864 2.95734C12.3311 3.74335 12.0466 4.67174 12.0475 5.62183C12.0453 5.98496 12.0836 6.34721 12.1617 6.70183C10.2808 6.60935 8.44068 6.12036 6.7615 5.26683C5.08231 4.41331 3.60192 3.21447 2.4171 1.74869C1.80788 2.78985 1.6185 4.02465 1.88764 5.20092C2.15679 6.37719 2.86414 7.4062 3.86526 8.07783C3.11679 8.05791 2.38409 7.858 1.72896 7.49497V7.5464C1.72994 8.63991 2.10711 9.69969 2.79698 10.5473C3.48685 11.3949 4.44727 11.9786 5.51655 12.2001C5.11215 12.3067 4.69539 12.359 4.27722 12.3555C3.97695 12.3608 3.67699 12.3335 3.38254 12.2744C3.68822 13.2139 4.27714 14.0354 5.06824 14.6258C5.85934 15.2163 6.81373 15.5467 7.80006 15.5715C6.12646 16.8823 4.0624 17.5933 1.9378 17.591C1.55985 17.5938 1.1821 17.5725 0.806885 17.527C2.96858 18.9219 5.48752 19.6599 8.05911 19.6515C9.82956 19.664 11.5848 19.324 13.223 18.6513C14.8611 17.9786 16.3494 16.9866 17.6015 15.7329C18.8535 14.4793 19.8443 12.9889 20.5163 11.3485C21.1883 9.70811 21.5281 7.95031 21.5159 6.17726C21.5159 5.96812 21.5091 5.76583 21.4988 5.56469C22.4311 4.89662 23.2339 4.06396 23.8679 3.10754Z" fill="white"/>
</svg>
