<svg width="29" height="21" viewBox="0 0 29 21" fill="none" xmlns="http://www.w3.org/2000/svg">
<path d="M27.839 3.96964C27.6784 3.37638 27.3655 2.83554 26.9315 2.40089C26.4975 1.96624 25.9574 1.6529 25.365 1.49202C23.1702 0.889272 14.3839 0.889272 14.3839 0.889272C10.7144 0.845836 7.04598 1.03943 3.40138 1.46883C2.80969 1.63833 2.27147 1.95738 1.83846 2.39534C1.40545 2.8333 1.09221 3.37544 0.928828 3.96964C0.530179 6.20075 0.336465 8.46374 0.350114 10.7302C0.335699 12.9968 0.529419 15.2598 0.928828 17.4908C1.08947 18.0841 1.40235 18.6249 1.83637 19.0596C2.27039 19.4942 2.81043 19.8076 3.40283 19.9685C5.6222 20.5698 14.3854 20.5698 14.3854 20.5698C18.0548 20.6132 21.7233 20.4196 25.3679 19.9902C25.9596 19.829 26.4989 19.5157 26.9324 19.0813C27.3659 18.647 27.6784 18.1067 27.839 17.514C28.2377 15.2829 28.4314 13.0199 28.4177 10.7534C28.444 8.47875 28.2502 6.20688 27.839 3.96964Z" fill="white"/>
<path d="M11.5857 14.9439L18.892 10.729L11.5857 6.51416V14.9439Z" fill="#262626"/>
</svg>
