<svg width="273" height="229" viewBox="0 0 273 229" fill="none" xmlns="http://www.w3.org/2000/svg">
<mask id="mask0_807_571" style="mask-type:alpha" maskUnits="userSpaceOnUse" x="4" y="0" width="266" height="221">
<rect x="4.92798" y="1.22266" width="263.577" height="219" rx="9.5" fill="white" stroke="black"/>
</mask>
<g mask="url(#mask0_807_571)">
<path d="M-160.411 -144.746C-161.378 -129.278 -130.828 -92.7338 -0.892486 -70.3044C161.526 -42.2678 263.038 4.13763 301.709 120.151" stroke="black" stroke-opacity="0.05" stroke-width="3.10052"/>
<path d="M-160.411 22.9216C-161.378 38.39 -130.828 74.9342 -0.892486 97.3635C161.526 125.4 263.038 171.806 301.709 287.819" stroke="black" stroke-opacity="0.05" stroke-width="3.10052"/>
<path d="M-160.411 -65.6267C-161.378 -50.1583 -130.828 -13.6141 -0.892486 8.8152C161.526 36.8519 263.038 83.2573 301.709 199.271" stroke="black" stroke-opacity="0.05" stroke-width="3.10052"/>
<path d="M-160.411 102.041C-161.378 117.51 -130.828 154.054 -0.892486 176.483C161.526 204.52 263.038 250.925 301.709 366.939" stroke="black" stroke-opacity="0.05" stroke-width="3.10052"/>
<path d="M-160.411 -100.846C-161.378 -85.3773 -130.828 -48.8331 -0.892486 -26.4038C161.526 1.63286 263.038 48.0383 301.709 164.052" stroke="black" stroke-opacity="0.05" stroke-width="3.10052"/>
<path d="M-160.411 66.8223C-161.378 82.2907 -130.828 118.835 -0.892486 141.264C161.526 169.301 263.038 215.706 301.709 331.72" stroke="black" stroke-opacity="0.05" stroke-width="3.10052"/>
<path d="M-160.411 -21.7261C-161.378 -6.25766 -130.828 30.2865 -0.892486 52.7158C161.526 80.7525 263.038 127.158 301.709 243.171" stroke="black" stroke-opacity="0.05" stroke-width="3.10052"/>
<path d="M-160.411 145.942C-161.378 161.41 -130.828 197.954 -0.892486 220.384C161.526 248.42 263.038 294.826 301.709 410.839" stroke="black" stroke-opacity="0.05" stroke-width="3.10052"/>
<path d="M-160.411 -134.772C-161.378 -119.304 -130.828 -82.7596 -0.892486 -60.3303C161.526 -32.2937 263.038 14.1118 301.709 130.125" stroke="black" stroke-opacity="0.05" stroke-width="3.10052"/>
<path d="M-160.411 32.8958C-161.378 48.3642 -130.828 84.9083 -0.892486 107.338C161.526 135.374 263.038 181.78 301.709 297.793" stroke="black" stroke-opacity="0.05" stroke-width="3.10052"/>
<path d="M-160.411 -55.6523C-161.378 -40.1839 -130.828 -3.63976 -0.892486 18.7896C161.526 46.8262 263.038 93.2316 301.709 209.245" stroke="black" stroke-opacity="0.05" stroke-width="3.10052"/>
<path d="M-160.411 112.015C-161.378 127.484 -130.828 164.028 -0.892486 186.457C161.526 214.494 263.038 260.899 301.709 376.913" stroke="black" stroke-opacity="0.05" stroke-width="3.10052"/>
<path d="M-160.411 -90.8716C-161.378 -75.4032 -130.828 -38.859 -0.892486 -16.4297C161.526 11.607 263.038 58.0124 301.709 174.026" stroke="black" stroke-opacity="0.05" stroke-width="3.10052"/>
<path d="M-160.411 76.7964C-161.378 92.2648 -130.828 128.809 -0.892486 151.238C161.526 179.275 263.038 225.68 301.709 341.694" stroke="black" stroke-opacity="0.05" stroke-width="3.10052"/>
<path d="M-160.411 -11.7517C-161.378 3.71671 -130.828 40.2609 -0.892486 62.6902C161.526 90.7269 263.038 137.132 301.709 253.146" stroke="black" stroke-opacity="0.05" stroke-width="3.10052"/>
<path d="M-160.411 155.916C-161.378 171.384 -130.828 207.929 -0.892486 230.358C161.526 258.395 263.038 304.8 301.709 420.814" stroke="black" stroke-opacity="0.05" stroke-width="3.10052"/>
<path d="M-160.411 -126.313C-161.378 -110.845 -130.828 -74.3006 -0.892486 -51.8713C161.526 -23.8347 263.038 22.5707 301.709 138.584" stroke="black" stroke-opacity="0.05" stroke-width="3.10052"/>
<path d="M-160.411 41.3545C-161.378 56.8229 -130.828 93.3671 -0.892486 115.796C161.526 143.833 263.038 190.238 301.709 306.252" stroke="black" stroke-opacity="0.05" stroke-width="3.10052"/>
<path d="M-160.411 -47.1936C-161.378 -31.7252 -130.828 4.81898 -0.892486 27.2483C161.526 55.285 263.038 101.69 301.709 217.704" stroke="black" stroke-opacity="0.05" stroke-width="3.10052"/>
<path d="M-160.411 120.474C-161.378 135.943 -130.828 172.487 -0.892486 194.916C161.526 222.953 263.038 269.358 301.709 385.372" stroke="black" stroke-opacity="0.05" stroke-width="3.10052"/>
<path d="M-160.411 -82.4126C-161.378 -66.9442 -130.828 -30.4 -0.892486 -7.97069C161.526 20.066 263.038 66.4714 301.709 182.485" stroke="black" stroke-opacity="0.05" stroke-width="3.10052"/>
<path d="M-160.411 85.2554C-161.378 100.724 -130.828 137.268 -0.892486 159.697C161.526 187.734 263.038 234.139 301.709 350.153" stroke="black" stroke-opacity="0.05" stroke-width="3.10052"/>
<path d="M-160.411 -3.29297C-161.378 12.1755 -130.828 48.7196 -0.892486 71.1489C161.526 99.1856 263.038 145.591 301.709 261.605" stroke="black" stroke-opacity="0.05" stroke-width="3.10052"/>
<path d="M-160.411 164.375C-161.378 179.843 -130.828 216.388 -0.892486 238.817C161.526 266.854 263.038 313.259 301.709 429.273" stroke="black" stroke-opacity="0.05" stroke-width="3.10052"/>
<path d="M-160.411 -118.599C-161.378 -103.13 -130.828 -66.586 -0.892486 -44.1567C161.526 -16.1201 263.038 30.2853 301.709 146.299" stroke="black" stroke-opacity="0.05" stroke-width="3.10052"/>
<path d="M-160.411 49.0693C-161.378 64.5378 -130.828 101.082 -0.892486 123.511C161.526 151.548 263.038 197.953 301.709 313.967" stroke="black" stroke-opacity="0.05" stroke-width="3.10052"/>
<path d="M-160.411 -39.479C-161.378 -24.0106 -130.828 12.5336 -0.892486 34.9629C161.526 62.9996 263.038 109.405 301.709 225.419" stroke="black" stroke-opacity="0.05" stroke-width="3.10052"/>
<path d="M-160.411 128.189C-161.378 143.657 -130.828 180.202 -0.892486 202.631C161.526 230.668 263.038 277.073 301.709 393.086" stroke="black" stroke-opacity="0.05" stroke-width="3.10052"/>
<path d="M-160.411 -74.698C-161.378 -59.2296 -130.828 -22.6854 -0.892486 -0.256089C161.526 27.7806 263.038 74.186 301.709 190.2" stroke="black" stroke-opacity="0.05" stroke-width="3.10052"/>
<path d="M-160.411 92.97C-161.378 108.438 -130.828 144.983 -0.892486 167.412C161.526 195.449 263.038 241.854 301.709 357.867" stroke="black" stroke-opacity="0.05" stroke-width="3.10052"/>
<path d="M-160.411 4.42188C-161.378 19.8903 -130.828 56.4345 -0.892486 78.8638C161.526 106.9 263.038 153.306 301.709 269.319" stroke="black" stroke-opacity="0.05" stroke-width="3.10052"/>
<path d="M-160.411 172.09C-161.378 187.558 -130.828 224.102 -0.892486 246.532C161.526 274.568 263.038 320.974 301.709 436.987" stroke="black" stroke-opacity="0.05" stroke-width="3.10052"/>
<path d="M-160.411 -109.527C-161.378 -94.0589 -130.828 -57.5148 -0.892486 -35.0854C161.526 -7.04878 263.038 39.3566 301.709 155.37" stroke="black" stroke-opacity="0.05" stroke-width="3.10052"/>
<path d="M-160.411 58.1406C-161.378 73.609 -130.828 110.153 -0.892486 132.583C161.526 160.619 263.038 207.025 301.709 323.038" stroke="black" stroke-opacity="0.05" stroke-width="3.10052"/>
<path d="M-160.411 -30.4075C-161.378 -14.9391 -130.828 21.6051 -0.892486 44.0344C161.526 72.0711 263.038 118.476 301.709 234.49" stroke="black" stroke-opacity="0.05" stroke-width="3.10052"/>
<path d="M-160.411 137.26C-161.378 152.729 -130.828 189.273 -0.892486 211.702C161.526 239.739 263.038 286.144 301.709 402.158" stroke="black" stroke-opacity="0.05" stroke-width="3.10052"/>
<path d="M-160.411 -65.6267C-161.378 -50.1583 -130.828 -13.6141 -0.892486 8.8152C161.526 36.8519 263.038 83.2573 301.709 199.271" stroke="black" stroke-opacity="0.05" stroke-width="3.10052"/>
<path d="M-160.411 102.041C-161.378 117.51 -130.828 154.054 -0.892486 176.483C161.526 204.52 263.038 250.925 301.709 366.939" stroke="black" stroke-opacity="0.05" stroke-width="3.10052"/>
<path d="M-160.411 13.4932C-161.378 28.9616 -130.828 65.5058 -0.892486 87.9351C161.526 115.972 263.038 162.377 301.709 278.391" stroke="black" stroke-opacity="0.05" stroke-width="3.10052"/>
<path d="M-160.411 181.161C-161.378 196.629 -130.828 233.173 -0.892486 255.603C161.526 283.639 263.038 330.045 301.709 446.058" stroke="black" stroke-opacity="0.05" stroke-width="3.10052"/>
</g>
</svg>
